<svg xmlns="http://www.w3.org/2000/svg" width="29.959" height="29.63" viewBox="0 0 29.959 29.63">
  <path id="home-01" d="M82.7,140.972a4.305,4.305,0,0,1,1.7,1.18q5.808,5.769,11.626,11.527a3.01,3.01,0,0,1,.651.845,2.717,2.717,0,0,1-2.381,3.96c-.163.006-.327,0-.528,0v.371c0,2.9.01,5.8-.012,8.7a3.172,3.172,0,0,1-3.115,3.043c-1.61.012-3.22,0-4.83,0a.88.88,0,0,1-.942-.948c0-2.242-.025-4.484.011-6.725a1.544,1.544,0,0,0-1.651-1.641c-.838.026-1.678,0-2.517.006a1.459,1.459,0,0,0-1.594,1.59v6.667a.913.913,0,0,1-1.047,1.05H73.567a3.191,3.191,0,0,1-3.344-3.321c-.007-2.8,0-5.6,0-8.406v-.349a9.036,9.036,0,0,1-1.033-.1,2.72,2.72,0,0,1-1.484-4.477c.095-.11.2-.21.3-.313q5.765-5.709,11.527-11.42a4.387,4.387,0,0,1,1.76-1.238Zm3.938,27.887h3.732a1.49,1.49,0,0,0,1.643-1.64v-9.506a.889.889,0,0,1,.981-.968c.411,0,.821,0,1.232,0a.982.982,0,0,0,.969-.771,1.12,1.12,0,0,0-.459-1.115l-4.254-4.209c-2.415-2.39-5.012-4.962-7.609-7.534a1.056,1.056,0,0,0-1.75,0L70.55,153.585c-.483.478-.967.954-1.449,1.434a.942.942,0,0,0-.25,1.111.973.973,0,0,0,.972.613h1.115a.914.914,0,0,1,1.048,1.05v9.477a1.479,1.479,0,0,0,1.605,1.588q1.742,0,3.483,0c.084,0,.169-.01.282-.017v-.358c.006-2-.016-4,.026-6A3.066,3.066,0,0,1,80.1,159.6a23.764,23.764,0,0,1,3.564-.035,3.142,3.142,0,0,1,2.975,3.294c.009,1.874,0,3.748,0,5.622Z" transform="translate(-67 -140.97)" fill="#00aef7"/>
</svg>
