<svg xmlns="http://www.w3.org/2000/svg" width="28.917" height="30.699" viewBox="0 0 28.917 30.699">
  <g id="Group_79" data-name="Group 79" transform="translate(-1890 -477.661)">
    <path id="Path_6" data-name="Path 6" d="M81.761,233.972c-.366-.1-.745-.168-1.1-.3a5.321,5.321,0,0,1-3.454-3.686c-.024-.084-.052-.168-.085-.274H70.6a2.532,2.532,0,0,1-2.438-1.625,2.476,2.476,0,0,1,.786-2.791,9.336,9.336,0,0,0,3.387-7.02c.047-1.373.012-2.75.013-4.125a9.958,9.958,0,0,1,8.515-9.852,13.1,13.1,0,0,1,2.056-.121,1.067,1.067,0,0,1,1.151,1.182c-.048.621-.579.967-1.3.948a7.837,7.837,0,0,0-6.183,2.558,7.5,7.5,0,0,0-2.065,5.1c-.03,1.352,0,2.7-.01,4.058a11.514,11.514,0,0,1-4.064,8.837.643.643,0,0,0-.232.457c.033.249.283.266.511.266q11.734,0,23.469-.011a.682.682,0,0,0,.492-.236c.142-.2-.068-.357-.221-.49a11.654,11.654,0,0,1-3.793-6.3,16.216,16.216,0,0,1-.261-4.1,1.025,1.025,0,0,1,.334-.73,1.063,1.063,0,0,1,.764-.277,1.091,1.091,0,0,1,1.078,1.068c.017.565-.005,1.131.009,1.7a9.322,9.322,0,0,0,3.382,7.088,2.381,2.381,0,0,1,.858,2.533,2.425,2.425,0,0,1-2,1.846,2.688,2.688,0,0,1-.542.035q-3.1,0-6.2,0c-.171,0-.31-.018-.377.214a5.3,5.3,0,0,1-4.48,3.992.536.536,0,0,0-.12.054Zm-2.321-4.248a3.224,3.224,0,0,0,3.251,2.108c1.325-.126,2.7-1.173,2.76-2.108Z" transform="translate(1821.995 274.388)" fill="#e000ff"/>
    <path id="Path_7" data-name="Path 7" d="M335.635,145.761A5.753,5.753,0,1,1,329.947,140,5.76,5.76,0,0,1,335.635,145.761Zm-1.739-.012a4.022,4.022,0,1,0-4.026,4.019,4.024,4.024,0,0,0,4.026-4.019Z" transform="translate(1581.258 337.661)" fill="#e000ff"/>
  </g>
</svg>
