<svg xmlns="http://www.w3.org/2000/svg" xmlns:xlink="http://www.w3.org/1999/xlink" width="174" height="182" viewBox="0 0 174 182">
  <defs>
    <clipPath id="clip-path">
      <rect id="Rectangle_224" data-name="Rectangle 224" width="174" height="182" fill="#fff"/>
    </clipPath>
  </defs>
  <g id="Mask_Group_9" data-name="Mask Group 9" clip-path="url(#clip-path)">
    <g id="Path_1" data-name="Path 1" transform="translate(-165.301 -169.695)" fill="#080505">
      <path d="M 166.30078125 345.1948852539062 C 155.1224670410156 345.1948852539062 143.9515075683594 344.0210571289062 133.0982818603516 341.7060546875 C 122.5210113525391 339.4499206542969 112.1166458129883 336.0833435058594 102.1741485595703 331.6998291015625 C 92.41073608398438 327.3952941894531 82.99355316162109 322.0671691894531 74.18409729003906 315.8634338378906 C 65.45677947998047 309.7175598144531 57.24969100952148 302.6591186523438 49.79082489013672 294.8841552734375 C 42.33087158203125 287.1081237792969 35.55801010131836 278.5514221191406 29.66032600402832 269.4517822265625 C 23.70555305480957 260.2640991210938 18.59100914001465 250.4419250488281 14.45869064331055 240.258056640625 C 10.24969005584717 229.8852386474609 7.017054080963135 219.0300598144531 4.8505539894104 207.9940185546875 C 2.627281188964844 196.6688385009766 1.500008463859558 185.0120697021484 1.500008463859558 173.3474273681641 C 1.500008463859558 161.6827850341797 2.627281188964844 150.0260162353516 4.8505539894104 138.7008361816406 C 7.017054080963135 127.6647872924805 10.24969005584717 116.8096084594727 14.45869064331055 106.4367904663086 C 18.59100914001465 96.2529296875 23.70555305480957 86.43074798583984 29.66032600402832 77.24306488037109 C 35.55801010131836 68.14342498779297 42.33087158203125 59.58674621582031 49.79082489013672 51.81074523925781 C 57.24969100952148 44.03578948974609 65.45677947998047 36.97733688354492 74.18409729003906 30.8314266204834 C 82.99355316162109 24.62774467468262 92.41073608398438 19.29961013793945 102.1741485595703 14.99501800537109 C 112.1166458129883 10.61151790618896 122.5210113525391 7.244972705841064 133.0982818603516 4.988836288452148 C 143.9515075683594 2.673836469650269 155.1224670410156 1.500018239021301 166.30078125 1.500018239021301 C 177.4790954589844 1.500018239021301 188.6500549316406 2.673836469650269 199.5032806396484 4.988836288452148 C 210.0805511474609 7.244972705841064 220.4849243164062 10.61151790618896 230.4274139404297 14.99501800537109 C 240.1908264160156 19.29961013793945 249.6080017089844 24.62774467468262 258.4174499511719 30.8314266204834 C 267.144775390625 36.97733688354492 275.3518676757812 44.03578948974609 282.8107299804688 51.81074523925781 C 290.2706909179688 59.58674621582031 297.0435485839844 68.14342498779297 302.9412231445312 77.24306488037109 C 308.89599609375 86.43074798583984 314.0105590820312 96.2529296875 318.1428833007812 106.4367904663086 C 322.3518676757812 116.8096084594727 325.5845031738281 127.6647872924805 327.7510070800781 138.7008361816406 C 329.9742736816406 150.0260162353516 331.1015625 161.6827850341797 331.1015625 173.3474273681641 C 331.1015625 185.0120697021484 329.9742736816406 196.6688385009766 327.7510070800781 207.9940185546875 C 325.5845031738281 219.0300598144531 322.3518676757812 229.8852386474609 318.1428833007812 240.258056640625 C 314.0105590820312 250.4419250488281 308.89599609375 260.2640991210938 302.9412231445312 269.4517822265625 C 297.0435485839844 278.5514221191406 290.2706909179688 287.1081237792969 282.8107299804688 294.8841552734375 C 275.3518676757812 302.6591186523438 267.144775390625 309.7175598144531 258.4174499511719 315.8634338378906 C 249.6080017089844 322.0671691894531 240.1908264160156 327.3952941894531 230.4274139404297 331.6998291015625 C 220.4849243164062 336.0833435058594 210.0805511474609 339.4499206542969 199.5032806396484 341.7060546875 C 188.6500549316406 344.0210571289062 177.4790954589844 345.1948852539062 166.30078125 345.1948852539062 Z" stroke="none"/>
      <path d="M 166.30078125 2.999969482421875 C 155.2274169921875 2.999969482421875 144.1617736816406 4.16265869140625 133.4111938476562 6.455780029296875 C 122.9340972900391 8.6905517578125 112.6280059814453 12.02532958984375 102.7792358398438 16.36752319335938 C 93.10646057128906 20.63214111328125 83.77622985839844 25.91110229492188 75.0477294921875 32.05783081054688 C 66.3990478515625 38.14837646484375 58.26556396484375 45.1435546875 50.87322998046875 52.84915161132812 C 43.47882080078125 60.556884765625 36.76528930664062 69.03866577148438 30.9190673828125 78.05886840820312 C 25.01577758789062 87.16714477539062 19.9453125 96.90460205078125 15.84860229492188 107.0007934570312 C 11.67559814453125 117.2849731445312 8.47052001953125 128.047607421875 6.32244873046875 138.9897918701172 C 4.117828369140625 150.219970703125 3 161.7795562744141 3 173.3474273681641 C 3 184.9152984619141 4.117828369140625 196.4748840332031 6.32244873046875 207.7050628662109 C 8.47052001953125 218.6472473144531 11.67559814453125 229.4098815917969 15.84860229492188 239.6940612792969 C 19.9453125 249.7902526855469 25.01577758789062 259.5277099609375 30.9190673828125 268.635986328125 C 36.76528930664062 277.6561889648438 43.47882080078125 286.1379699707031 50.87322998046875 293.845703125 C 58.26556396484375 301.5512390136719 66.3990478515625 308.5464782714844 75.0477294921875 314.636962890625 C 83.77622985839844 320.78369140625 93.10646057128906 326.0627136230469 102.7792358398438 330.3273010253906 C 112.6280059814453 334.6694641113281 122.9340972900391 338.0042419433594 133.4111938476562 340.239013671875 C 144.1617736816406 342.5321655273438 155.2274169921875 343.69482421875 166.30078125 343.69482421875 C 177.3741455078125 343.69482421875 188.4397888183594 342.5321655273438 199.1903686523438 340.239013671875 C 209.6674652099609 338.0042419433594 219.9735565185547 334.6694641113281 229.8222808837891 330.3273010253906 C 239.4951019287109 326.0627136230469 248.8253173828125 320.78369140625 257.5537719726562 314.636962890625 C 266.2025146484375 308.5464782714844 274.3359680175781 301.5512390136719 281.7283325195312 293.845703125 C 289.1227416992188 286.1379699707031 295.8362731933594 277.6561889648438 301.6824951171875 268.635986328125 C 307.5857849121094 259.5277099609375 312.65625 249.7902526855469 316.7529602050781 239.6940612792969 C 320.9259643554688 229.4098815917969 324.1310119628906 218.6472473144531 326.2791137695312 207.7050628662109 C 328.4837341308594 196.4748840332031 329.6015625 184.9152984619141 329.6015625 173.3474273681641 C 329.6015625 161.7795562744141 328.4837341308594 150.219970703125 326.2791137695312 138.9897918701172 C 324.1310119628906 128.047607421875 320.9259643554688 117.2849731445312 316.7529602050781 107.0007934570312 C 312.65625 96.90460205078125 307.5857849121094 87.16714477539062 301.6824951171875 78.05886840820312 C 295.8362731933594 69.03866577148438 289.1227416992188 60.556884765625 281.7283325195312 52.84915161132812 C 274.3359680175781 45.1435546875 266.2025146484375 38.14837646484375 257.5537719726562 32.05783081054688 C 248.8253173828125 25.91110229492188 239.4951019287109 20.63214111328125 229.8222808837891 16.36752319335938 C 219.9735565185547 12.02532958984375 209.6674652099609 8.6905517578125 199.1903686523438 6.455780029296875 C 188.4397888183594 4.16265869140625 177.3741455078125 2.999969482421875 166.30078125 2.999969482421875 M 166.30078125 -3.0517578125e-05 C 258.1461486816406 -3.0517578125e-05 332.6015625 77.61029052734375 332.6015625 173.3474273681641 C 332.6015625 269.0845642089844 258.1461486816406 346.69482421875 166.30078125 346.69482421875 C 74.45538330078125 346.69482421875 0 269.0845642089844 0 173.3474273681641 C 0 77.61029052734375 74.45538330078125 -3.0517578125e-05 166.30078125 -3.0517578125e-05 Z" stroke="none" fill="#e02070"/>
    </g>
    <g id="Path_2" data-name="Path 2" transform="translate(-201.438 -198.695)" fill="#080505">
      <path d="M 166.30078125 345.1948852539062 C 155.1224670410156 345.1948852539062 143.9515075683594 344.0210571289062 133.0982818603516 341.7060546875 C 122.5210113525391 339.4499206542969 112.1166458129883 336.0833435058594 102.1741485595703 331.6998291015625 C 92.41073608398438 327.3952941894531 82.99355316162109 322.0671691894531 74.18409729003906 315.8634338378906 C 65.45677947998047 309.7175598144531 57.24969100952148 302.6591186523438 49.79082489013672 294.8841552734375 C 42.33087158203125 287.1081237792969 35.55801010131836 278.5514221191406 29.66032600402832 269.4517822265625 C 23.70555305480957 260.2640991210938 18.59100914001465 250.4419250488281 14.45869064331055 240.258056640625 C 10.24969005584717 229.8852386474609 7.017054080963135 219.0300598144531 4.8505539894104 207.9940185546875 C 2.627281188964844 196.6688385009766 1.500008463859558 185.0120697021484 1.500008463859558 173.3474273681641 C 1.500008463859558 161.6827850341797 2.627281188964844 150.0260162353516 4.8505539894104 138.7008361816406 C 7.017054080963135 127.6647872924805 10.24969005584717 116.8096084594727 14.45869064331055 106.4367904663086 C 18.59100914001465 96.2529296875 23.70555305480957 86.43074798583984 29.66032600402832 77.24306488037109 C 35.55801010131836 68.14342498779297 42.33087158203125 59.58674621582031 49.79082489013672 51.81074523925781 C 57.24969100952148 44.03578948974609 65.45677947998047 36.97733688354492 74.18409729003906 30.8314266204834 C 82.99355316162109 24.62774467468262 92.41073608398438 19.29961013793945 102.1741485595703 14.99501800537109 C 112.1166458129883 10.61151790618896 122.5210113525391 7.244972705841064 133.0982818603516 4.988836288452148 C 143.9515075683594 2.673836469650269 155.1224670410156 1.500018239021301 166.30078125 1.500018239021301 C 177.4790954589844 1.500018239021301 188.6500549316406 2.673836469650269 199.5032806396484 4.988836288452148 C 210.0805511474609 7.244972705841064 220.4849243164062 10.61151790618896 230.4274139404297 14.99501800537109 C 240.1908264160156 19.29961013793945 249.6080017089844 24.62774467468262 258.4174499511719 30.8314266204834 C 267.144775390625 36.97733688354492 275.3518676757812 44.03578948974609 282.8107299804688 51.81074523925781 C 290.2706909179688 59.58674621582031 297.0435485839844 68.14342498779297 302.9412231445312 77.24306488037109 C 308.89599609375 86.43074798583984 314.0105590820312 96.2529296875 318.1428833007812 106.4367904663086 C 322.3518676757812 116.8096084594727 325.5845031738281 127.6647872924805 327.7510070800781 138.7008361816406 C 329.9742736816406 150.0260162353516 331.1015625 161.6827850341797 331.1015625 173.3474273681641 C 331.1015625 185.0120697021484 329.9742736816406 196.6688385009766 327.7510070800781 207.9940185546875 C 325.5845031738281 219.0300598144531 322.3518676757812 229.8852386474609 318.1428833007812 240.258056640625 C 314.0105590820312 250.4419250488281 308.89599609375 260.2640991210938 302.9412231445312 269.4517822265625 C 297.0435485839844 278.5514221191406 290.2706909179688 287.1081237792969 282.8107299804688 294.8841552734375 C 275.3518676757812 302.6591186523438 267.144775390625 309.7175598144531 258.4174499511719 315.8634338378906 C 249.6080017089844 322.0671691894531 240.1908264160156 327.3952941894531 230.4274139404297 331.6998291015625 C 220.4849243164062 336.0833435058594 210.0805511474609 339.4499206542969 199.5032806396484 341.7060546875 C 188.6500549316406 344.0210571289062 177.4790954589844 345.1948852539062 166.30078125 345.1948852539062 Z" stroke="none"/>
      <path d="M 166.30078125 2.999969482421875 C 155.2274169921875 2.999969482421875 144.1617736816406 4.16265869140625 133.4111938476562 6.455780029296875 C 122.9340972900391 8.6905517578125 112.6280059814453 12.02532958984375 102.7792358398438 16.36752319335938 C 93.10646057128906 20.63214111328125 83.77622985839844 25.91110229492188 75.0477294921875 32.05783081054688 C 66.3990478515625 38.14837646484375 58.26556396484375 45.1435546875 50.87322998046875 52.84915161132812 C 43.47882080078125 60.556884765625 36.76528930664062 69.03866577148438 30.9190673828125 78.05886840820312 C 25.01577758789062 87.16714477539062 19.9453125 96.90460205078125 15.84860229492188 107.0007934570312 C 11.67559814453125 117.2849731445312 8.47052001953125 128.047607421875 6.32244873046875 138.9897918701172 C 4.117828369140625 150.219970703125 3 161.7795562744141 3 173.3474273681641 C 3 184.9152984619141 4.117828369140625 196.4748840332031 6.32244873046875 207.7050628662109 C 8.47052001953125 218.6472473144531 11.67559814453125 229.4098815917969 15.84860229492188 239.6940612792969 C 19.9453125 249.7902526855469 25.01577758789062 259.5277099609375 30.9190673828125 268.635986328125 C 36.76528930664062 277.6561889648438 43.47882080078125 286.1379699707031 50.87322998046875 293.845703125 C 58.26556396484375 301.5512390136719 66.3990478515625 308.5464782714844 75.0477294921875 314.636962890625 C 83.77622985839844 320.78369140625 93.10646057128906 326.0627136230469 102.7792358398438 330.3273010253906 C 112.6280059814453 334.6694641113281 122.9340972900391 338.0042419433594 133.4111938476562 340.239013671875 C 144.1617736816406 342.5321655273438 155.2274169921875 343.69482421875 166.30078125 343.69482421875 C 177.3741455078125 343.69482421875 188.4397888183594 342.5321655273438 199.1903686523438 340.239013671875 C 209.6674652099609 338.0042419433594 219.9735565185547 334.6694641113281 229.8222808837891 330.3273010253906 C 239.4951019287109 326.0627136230469 248.8253173828125 320.78369140625 257.5537719726562 314.636962890625 C 266.2025146484375 308.5464782714844 274.3359680175781 301.5512390136719 281.7283325195312 293.845703125 C 289.1227416992188 286.1379699707031 295.8362731933594 277.6561889648438 301.6824951171875 268.635986328125 C 307.5857849121094 259.5277099609375 312.65625 249.7902526855469 316.7529602050781 239.6940612792969 C 320.9259643554688 229.4098815917969 324.1310119628906 218.6472473144531 326.2791137695312 207.7050628662109 C 328.4837341308594 196.4748840332031 329.6015625 184.9152984619141 329.6015625 173.3474273681641 C 329.6015625 161.7795562744141 328.4837341308594 150.219970703125 326.2791137695312 138.9897918701172 C 324.1310119628906 128.047607421875 320.9259643554688 117.2849731445312 316.7529602050781 107.0007934570312 C 312.65625 96.90460205078125 307.5857849121094 87.16714477539062 301.6824951171875 78.05886840820312 C 295.8362731933594 69.03866577148438 289.1227416992188 60.556884765625 281.7283325195312 52.84915161132812 C 274.3359680175781 45.1435546875 266.2025146484375 38.14837646484375 257.5537719726562 32.05783081054688 C 248.8253173828125 25.91110229492188 239.4951019287109 20.63214111328125 229.8222808837891 16.36752319335938 C 219.9735565185547 12.02532958984375 209.6674652099609 8.6905517578125 199.1903686523438 6.455780029296875 C 188.4397888183594 4.16265869140625 177.3741455078125 2.999969482421875 166.30078125 2.999969482421875 M 166.30078125 -3.0517578125e-05 C 258.1461486816406 -3.0517578125e-05 332.6015625 77.61029052734375 332.6015625 173.3474273681641 C 332.6015625 269.0845642089844 258.1461486816406 346.69482421875 166.30078125 346.69482421875 C 74.45538330078125 346.69482421875 0 269.0845642089844 0 173.3474273681641 C 0 77.61029052734375 74.45538330078125 -3.0517578125e-05 166.30078125 -3.0517578125e-05 Z" stroke="none" fill="#e02070"/>
    </g>
  </g>
</svg>
