<svg xmlns="http://www.w3.org/2000/svg" width="29" height="29.007" viewBox="0 0 29 29.007">
  <g id="search-01" transform="translate(335.015 -471.101)">
    <g id="Group_1" data-name="Group 1" transform="translate(92.985 198.454)">
      <path id="Path_3" data-name="Path 3" d="M149.549,248.26c-.18-.048-.361-.093-.54-.146a3.782,3.782,0,0,1-1.5-.925,57.093,57.093,0,0,1-5.5-6.419c-.4-.509-.8-1.023-1.214-1.547-.368.188-.718.386-1.085.551a10.647,10.647,0,0,1-9.082.014,1.137,1.137,0,1,1,.923-2.073,8.651,8.651,0,0,0,3.868.8,8.493,8.493,0,1,0-7.59-4.213,1.14,1.14,0,0,1,.019,1.255,1.078,1.078,0,0,1-1.057.529,1.057,1.057,0,0,1-.859-.531,10.64,10.64,0,0,1-1.47-4.354c-.013-.111-.039-.221-.06-.331v-1.7c.017-.062.039-.123.052-.186a18.49,18.49,0,0,1,.539-2.445,10.57,10.57,0,0,1,7.744-7c.517-.131,1.051-.19,1.577-.282h1.7a1.079,1.079,0,0,0,.187.051,10.637,10.637,0,0,1,2.954.714,10.755,10.755,0,0,1,6.334,13.018c-.268.884-.68,1.725-1.049,2.63.5.394,1.062.831,1.62,1.284a57.777,57.777,0,0,1,6.291,5.438,3.767,3.767,0,0,1,.906,1.479c.055.178.1.361.146.542v.906a1.129,1.129,0,0,0-.055.158,3.25,3.25,0,0,1-1.732,2.374,8.3,8.3,0,0,1-1.159.413ZM142.588,237.8c.06.082.106.151.159.219,1.029,1.3,2.069,2.6,3.087,3.911a33.36,33.36,0,0,0,3.3,3.654,1.133,1.133,0,1,0,1.586-1.606c-.56-.561-1.093-1.156-1.7-1.661-1.479-1.245-2.992-2.451-4.5-3.669-.511-.414-1.031-.816-1.544-1.221Z" transform="translate(-552.4 53.387)" fill="#00fd52"/>
    </g>
  </g>
</svg>
