<svg xmlns="http://www.w3.org/2000/svg" width="25.515" height="27.364" viewBox="0 0 25.515 27.364">
  <g id="user" transform="translate(-125.688 -154.114)">
    <path id="Path_4" data-name="Path 4" d="M138.418,396.793c-3.854,0-7.708-.01-11.562.009a1.1,1.1,0,0,1-1.168-1.2,12.249,12.249,0,0,1,1.088-5.04,9.1,9.1,0,0,1,4.586-4.39,14.8,14.8,0,0,1,4.622-1.189,22.689,22.689,0,0,1,3.837-.094,14.755,14.755,0,0,1,6.611,1.75,8.966,8.966,0,0,1,4.445,6.19,25.249,25.249,0,0,1,.319,2.775,1.066,1.066,0,0,1-1.161,1.2C146.162,396.783,142.29,396.793,138.418,396.793Zm10.706-2.014a1.465,1.465,0,0,0,0-.267c-.151-.729-.25-1.474-.471-2.181a6.864,6.864,0,0,0-3.354-4.041,11.745,11.745,0,0,0-4.521-1.32,20.867,20.867,0,0,0-4.979.043,11.6,11.6,0,0,0-4.2,1.279,7.059,7.059,0,0,0-2.718,2.61,8.268,8.268,0,0,0-1.011,2.9c-.053.319-.078.642-.118.976Z" transform="translate(0 -215.325)" fill="#fcff58"/>
    <path id="Path_5" data-name="Path 5" d="M230.68,160.868a7.315,7.315,0,0,1-2.82,5.892,6.214,6.214,0,0,1-7.582,0,7.16,7.16,0,0,1-2.7-4.462,6.924,6.924,0,0,1,1.222-5.615,6.19,6.19,0,0,1,4.307-2.5,6.533,6.533,0,0,1,7.524,5.776c.018.141.036.282.043.425C230.686,160.548,230.68,160.708,230.68,160.868Zm-2,.3a4.925,4.925,0,0,0-1.12-3.464,4.467,4.467,0,0,0-4.244-1.516,4.1,4.1,0,0,0-3.392,2.52,5.294,5.294,0,0,0,.89,5.826,4.188,4.188,0,0,0,5.8.648A5.1,5.1,0,0,0,228.682,161.17Z" transform="translate(-85.624)" fill="#fcff58"/>
  </g>
</svg>
